<svg width="512" height="512" viewBox="0 0 512 512" fill="none" xmlns="http://www.w3.org/2000/svg">
  <!-- Background -->
  <rect width="512" height="512" rx="115" fill="#FF1744"/>

  <!-- Heart with music note -->
  <g transform="translate(256 256)">
    <!-- Heart -->
    <path d="M-60,-40 C-60,-80 -100,-80 -100,-40 C-100,0 -60,40 0,80 C60,40 100,0 100,-40 C100,-80 60,-80 60,-40 C60,-60 40,-60 40,-40 C40,-20 0,20 0,20 C0,20 -40,-20 -40,-40 C-40,-60 -60,-60 -60,-40 Z"
          fill="white" opacity="0.95"/>

    <!-- Music note -->
    <g transform="translate(20 -20) scale(0.8)">
      <circle cx="0" cy="40" r="18" fill="#FF1744"/>
      <rect x="-4" y="-60" width="8" height="100" rx="4" fill="#FF1744"/>
      <path d="M-4,-60 Q40,-80 40,-40 L40,-20 Q40,-35 -4,-55 Z" fill="#FF1744"/>
    </g>
  </g>
</svg>
